# xmcd
#
# Track frame offsets:
#	150
#	14939
#	29942
#	45528
#	59716
#	74227
#	89327
#	104184
#	118233
#	134064
#	149582
#	163754
#	177853
#	192154
#	206292
#	220533
#	235670
#	250857
#	265053
#	280144
#	294430
#	309647
#	323932
#
# Disc length: 4514 seconds
#
# Revision: 0
# Processed by: cddbd v1.5.2PL0 Copyright (c) Steve Scherf et al.
# Submitted via: EasyCDDAExtractor 16.0.6.1
#
DISCID=7d11a017
DTITLE=Συλλογικός δίσκος - Ρεμπέτικα και λαϊκά 1
DYEAR=2009
DGENRE=Ποικίλη
TTITLE0=Βαμβακάρης Μάρκος - Καραντουζένι [1932, Μάρκου Βαμβακάρη]
TTITLE1=Μπάτης Γιώργος - Ο φασουλάς [1936, Γιώργου Μπάτη]
TTITLE2=Δελλιάς Ανέστης - Κουτσαβάκι [1936, Ανέστη Δελλιά]
TTITLE3=Περπινιάδης Στελλάκης - Εγώ θέλω πριγκηπέσσα [1936, Παν. Τούντα, μπ. Γ
TTITLE3=ιάννης Εϊτζιρίδης]
TTITLE4=Κηρομύτης Στέλιος - Μέσ' στου Βάβουλα τη γούβα [1937, Στέλιου Κηρομύτη
TTITLE4=, α' δίσκος]
TTITLE5=Καλυβόπουλος Αντώνης - Παραπονιούνται οι μάγκες μας [1936, Γιάννη Εϊτζ
TTITLE5=ιρίδη]
TTITLE6=Κάκκη Ελβίρα ή Ελβίρα Ντε Ιντάλγκο - Πικρός είναι ο πόνος μου [1936, Β
TTITLE6=ασίλη Τσιτσάνη]
TTITLE7=Παγιουμτζής Στράτος-Περπινιάδης Στελλάκης - Θέλω να σ' ανταμώσω [1939,
TTITLE7=Δημήτρη Γκόγκου]
TTITLE8=Κάβουρας Γιώργος - Είμαι τεχνίτης ξακουστός [1940, Κώστα Σκαρβέλη]
TTITLE9=Δελλιάς Ανέστης - Σούρα και μαστούρα [1936, Ανέστη Δελλιά]
TTITLE10=Σταυροπούλου Νταίζη-Χιώτης Μανώλης - Μικροπαντρεμενάκι [1940, Στέλιου
TTITLE10=Δρόσου, μπ. Δ. Γκόγκος-Μ. Χιώτης]
TTITLE11=Βαμβακάρης Μάρκος - Ώρες με θρέφει ο λουλάς [1943, Μάρκου Βαμβακάρη]
TTITLE12=Χατζηχρήστος Απόστολος - Μη μού μιλάς με μάσκα [1940, Γιάννη Λελάκη-Α
TTITLE12=π. Χατζηχρήστου]
TTITLE13=Ευγενικός Αθανάσιος-Χιώτης Μανώλης - Καινούργια νιώθω τη ζωή [1937, Σ
TTITLE13=τεφάνου Σπιτάμπελου-Μ. Χιώτη]
TTITLE14=Καλυβόπουλος Αντώνης - Η Ελένη η ζωντοχήρα [1936, Γιάννη Εϊτζιρίδη]
TTITLE15=Παπαϊωάννου Γιάννης-Κωνσταντινίδης Γιώργος - Πολύ στο λούσο τό 'ριξες
TTITLE15=[1940, Γιάννη Παπαϊωάννου]
TTITLE16=Βαμβακάρης Μάρκος - Όταν με βλέπεις να περνώ [1934, Μάρκου Βαμβακάρη]
TTITLE17=Παγιουμτζής Στράτος-Τσιτσάνης Βασίλης - Σε ζηλεύω, σε πονώ [1940, Βασ
TTITLE17=ίλη Τσιτσάνη]
TTITLE18=Παπαϊωάννου Γιάννης - Βαδίζω με παράπονο [1939, Γιώργου Φωτίδη-Γιάννη
TTITLE18=Παπαϊωάννου]
TTITLE19=Βαμβακάρης Μάρκος - Φραγκοσυριανή [1935, Μάρκου Βαμβακάρη]
TTITLE20=Χατζηχρήστος Απόστολος-Παπαϊωάννου Γιάννης - Ξανθιά Σμυρνιοτοπούλα [1
TTITLE20=939, Γιάννη Παπαϊωάννου-Απ. Χατζηχρήστου]
TTITLE21=Άνευ ερμηνευτού - Ταξίμι αθηναίϊκο και ζεϊμπέκικο [1936, οργ., Γιώργ.
TTITLE21=Μπάτη, μπ. Α. Δελλιάς]
TTITLE22=Περπινιάδης Στελλάκης - Λαχανάδες [1934, Βαγγέλη Παπάζογλου]
EXTD=
EXTT0=
EXTT1=
EXTT2=
EXTT3=
EXTT4=
EXTT5=
EXTT6=
EXTT7=
EXTT8=
EXTT9=
EXTT10=
EXTT11=
EXTT12=
EXTT13=
EXTT14=
EXTT15=
EXTT16=
EXTT17=
EXTT18=
EXTT19=
EXTT20=
EXTT21=
EXTT22=
PLAYORDER=
